<svg width="17" height="17" viewBox="0 0 17 17" fill="none" xmlns="http://www.w3.org/2000/svg">
<path d="M8.5 17C6.24566 17 4.08365 16.1045 2.48959 14.5104C0.895529 12.9164 0 10.7544 0 8.50001C0 6.24567 0.895529 4.08365 2.48959 2.48959C4.08365 0.895529 6.24566 0 8.5 0C8.79738 0 9.08257 0.118134 9.29284 0.32841C9.50312 0.538686 9.62125 0.823879 9.62125 1.12125C9.62125 1.41863 9.50312 1.70382 9.29284 1.9141C9.08257 2.12437 8.79738 2.24251 8.5 2.24251C7.26238 2.24251 6.05256 2.6095 5.02352 3.29708C3.99448 3.98466 3.19245 4.96195 2.71884 6.10536C2.24522 7.24877 2.12129 8.50694 2.36274 9.72077C2.60418 10.9346 3.20016 12.0496 4.07529 12.9247C4.95042 13.7999 6.06539 14.3958 7.27923 14.6373C8.49306 14.8787 9.75123 14.7548 10.8946 14.2812C12.038 13.8076 13.0153 13.0055 13.7029 11.9765C14.3905 10.9474 14.7575 9.73763 14.7575 8.50001C14.7575 8.20264 14.8756 7.91742 15.0859 7.70714C15.2962 7.49687 15.5814 7.37876 15.8787 7.37876C16.1761 7.37876 16.4613 7.49687 16.6716 7.70714C16.8819 7.91742 17 8.20264 17 8.50001C16.9974 10.7536 16.101 12.914 14.5075 14.5075C12.914 16.101 10.7535 16.9974 8.5 17Z" fill="#F3791F"/>
<path d="M7.10508 13.077H7.09216C6.92056 13.0747 6.75193 13.0272 6.60028 12.9383C6.44863 12.8495 6.31833 12.722 6.2202 12.5663L4.11871 9.22385C4.03721 9.09551 3.97942 8.95062 3.94869 8.79752C3.91795 8.64442 3.91487 8.4861 3.9396 8.33167C3.96434 8.17725 4.01642 8.02975 4.09284 7.89764C4.16926 7.76552 4.26851 7.65141 4.38492 7.56182C4.50133 7.47224 4.63259 7.40895 4.77117 7.37561C4.90975 7.34227 5.05292 7.33952 5.19247 7.36753C5.33201 7.39554 5.46516 7.45376 5.58431 7.53882C5.70345 7.62389 5.80623 7.73413 5.88675 7.86324L7.12577 9.83459L12.4497 1.77864C12.6204 1.53002 12.8725 1.36542 13.1518 1.32027C13.4311 1.27512 13.7153 1.35302 13.9431 1.53722C14.171 1.72141 14.3244 1.99716 14.3703 2.30515C14.4162 2.61313 14.3509 2.92871 14.1885 3.18401L7.97361 12.5891C7.87373 12.7403 7.74302 12.8632 7.59211 12.948C7.44121 13.0327 7.27434 13.0769 7.10508 13.077Z" fill="#F3791F"/>
</svg>
