<svg width="18" height="17" viewBox="0 0 18 17" fill="none" xmlns="http://www.w3.org/2000/svg">
<path d="M9 17C6.61305 17 4.32386 16.1045 2.63604 14.5104C0.948208 12.9164 0 10.7544 0 8.50001C0 6.24567 0.948208 4.08365 2.63604 2.48959C4.32386 0.895529 6.61305 0 9 0C9.31487 0 9.61684 0.118134 9.83948 0.32841C10.0621 0.538686 10.1872 0.823879 10.1872 1.12125C10.1872 1.41863 10.0621 1.70382 9.83948 1.9141C9.61684 2.12437 9.31487 2.24251 9 2.24251C7.68958 2.24251 6.4086 2.6095 5.31903 3.29708C4.22945 3.98466 3.38024 4.96195 2.87877 6.10536C2.37729 7.24877 2.24607 8.50694 2.50172 9.72077C2.75737 10.9346 3.38841 12.0496 4.31501 12.9247C5.24162 13.7999 6.42218 14.3958 7.70742 14.6373C8.99265 14.8787 10.3248 14.7548 11.5355 14.2812C12.7462 13.8076 13.7809 13.0055 14.509 11.9765C15.237 10.9474 15.6256 9.73763 15.6256 8.50001C15.6256 8.20264 15.7507 7.91742 15.9733 7.70714C16.196 7.49687 16.4979 7.37876 16.8128 7.37876C17.1277 7.37876 17.4296 7.49687 17.6523 7.70714C17.8749 7.91742 18 8.20264 18 8.50001C17.9972 10.7536 17.0481 12.914 15.3609 14.5075C13.6737 16.101 11.3861 16.9974 9 17Z" fill="#BAC3CC"/>
<path d="M7.52297 13.077H7.50929C7.3276 13.0747 7.14905 13.0272 6.98847 12.9383C6.8279 12.8495 6.68994 12.722 6.58604 12.5663L4.36093 9.22385C4.27464 9.09551 4.21345 8.95062 4.18091 8.79752C4.14837 8.64442 4.1451 8.4861 4.17129 8.33167C4.19748 8.17725 4.25262 8.02975 4.33353 7.89764C4.41445 7.76552 4.51954 7.65141 4.6428 7.56182C4.76605 7.47224 4.90504 7.40895 5.05177 7.37561C5.1985 7.34227 5.3501 7.33952 5.49785 7.36753C5.6456 7.39554 5.78658 7.45376 5.91274 7.53882C6.03889 7.62389 6.14772 7.73413 6.23297 7.86324L7.54487 9.83459L13.182 1.77864C13.3627 1.53002 13.6296 1.36542 13.9254 1.32027C14.2211 1.27512 14.522 1.35302 14.7633 1.53722C15.0046 1.72141 15.167 1.99716 15.2156 2.30515C15.2641 2.61313 15.195 2.92871 15.0231 3.18401L8.44259 12.5891C8.33684 12.7403 8.19844 12.8632 8.03865 12.948C7.87887 13.0327 7.70219 13.0769 7.52297 13.077Z" fill="#BAC3CC"/>
</svg>
